<?xml version="1.0" encoding="UTF-8"?>
<svg width="1237px" height="1019px" viewBox="0 0 1237 1019" version="1.1" xmlns="http://www.w3.org/2000/svg" xmlns:xlink="http://www.w3.org/1999/xlink">
    <!-- Generator: Sketch 52.2 (67145) - http://www.bohemiancoding.com/sketch -->
    <title>Group</title>
    <desc>Created with Sketch.</desc>
    <defs>
        <polygon id="path-1" points="112.315336 0.00368036834 0.925487539 0.00368036834 0.925487539 85.9322596 112.315336 85.9322596 112.315336 0.00368036834"></polygon>
        <polygon id="path-3" points="111.389446 0.00368036834 0 0.00368036834 0 85.9322596 111.389446 85.9322596 111.389446 0.00368036834"></polygon>
    </defs>
    <g id="Page-1" stroke="none" stroke-width="1" fill="none" fill-rule="evenodd">
        <g id="Ninja" transform="translate(-61.000000, -180.000000)">
            <g id="sticker_logo_rapid-ninja" transform="translate(-7057.000000, 192.000000)">
                <g id="Group" transform="translate(7134.000000, 0.000000)">
                    <path d="M876.077239,513.434022 C882.352021,513.434022 887.551591,508.18384 887.551591,501.770108 C887.551591,495.356792 882.352438,490.107518 876.077239,490.107518 C869.802041,490.107518 864.602888,495.356792 864.602888,501.770108 C864.602888,508.18384 869.802458,513.434022 876.077239,513.434022 Z M998.394687,390.568334 C1004.67328,390.568334 1009.8756,385.315625 1009.8756,378.899121 C1009.8756,372.481416 1004.6734,367.228584 998.394687,367.228584 C992.116387,367.228584 986.915089,372.481 986.915089,378.899121 C986.915089,385.316041 992.116507,390.568334 998.394687,390.568334 Z M937.434695,451.460771 C943.712219,451.460771 948.914293,446.207816 948.914293,439.790234 C948.914293,433.373068 943.712636,428.121022 937.434695,428.121022 C931.155561,428.121022 925.953785,433.372945 925.953785,439.790234 C925.953785,446.20794 931.155978,451.460771 937.434695,451.460771 Z M1057.81599,329.926231 C1064.09029,329.926231 1069.29034,324.673862 1069.29034,318.255695 C1069.29034,311.837943 1064.09071,306.586482 1057.81599,306.586482 C1051.54168,306.586482 1046.34295,311.837527 1046.34295,318.255695 C1046.34295,324.674277 1051.5421,329.926231 1057.81599,329.926231 Z M1130.65304,256.275821 C1130.65304,249.861673 1125.45437,244.611907 1119.18,244.611907 C1112.90397,244.611907 1107.70565,249.859363 1107.70565,256.269198 C1107.70565,262.680781 1112.90504,267.930784 1119.18297,267.933113 C1125.45598,267.93544 1130.65304,262.689007 1130.65304,256.275821 Z M802.055254,490.640448 L802.055516,490.640184 L1119.41626,170.16509 C1130.19974,159.278511 1147.82777,159.277933 1158.61046,170.165577 L1204.54296,216.545183 C1215.28359,227.390357 1215.28359,245.057819 1204.54286,255.90124 L887.144878,576.376842 C876.362322,587.264356 858.732784,587.26204 847.952603,576.371326 L802.052148,529.998912 C791.314295,519.152819 791.316571,501.485521 802.055254,490.640448 Z" id="Fill-4-Copy" stroke="#FFFFFF" stroke-width="16" fill="#000000"></path>
                    <path d="M328.521129,513.434022 C334.795911,513.434022 339.99548,508.18384 339.99548,501.770108 C339.99548,495.356792 334.796328,490.107518 328.521129,490.107518 C322.245931,490.107518 317.046778,495.356792 317.046778,501.770108 C317.046778,508.18384 322.246348,513.434022 328.521129,513.434022 Z M206.203681,390.568334 C212.481862,390.568334 217.68328,385.316041 217.68328,378.899121 C217.68328,372.481 212.481981,367.228584 206.203681,367.228584 C199.924965,367.228584 194.722771,372.481416 194.722771,378.899121 C194.722771,385.315625 199.925084,390.568334 206.203681,390.568334 Z M267.164986,451.460771 C273.44251,451.460771 278.644584,446.207816 278.644584,439.790234 C278.644584,433.373068 273.442927,428.121022 267.164986,428.121022 C260.885852,428.121022 255.684076,433.372945 255.684076,439.790234 C255.684076,446.20794 260.886269,451.460771 267.164986,451.460771 Z M146.78238,329.926231 C153.056269,329.926231 158.25542,324.674277 158.25542,318.255695 C158.25542,311.837527 153.056686,306.586482 146.78238,306.586482 C140.507657,306.586482 135.308029,311.837943 135.308029,318.255695 C135.308029,324.673862 140.508074,329.926231 146.78238,329.926231 Z M73.9453269,256.275821 C73.9453269,262.68913 79.1425105,267.935441 85.4167101,267.933113 C91.693444,267.930785 96.8927176,262.680657 96.8927176,256.269198 C96.8927176,249.859486 91.694518,244.611907 85.4196781,244.611907 C79.1441213,244.611907 73.9453269,249.86155 73.9453269,256.275821 Z M85.1821085,170.16509 L85.182812,170.165801 L402.542632,490.639961 C413.282819,501.484693 413.284525,519.152363 402.546783,529.998343 L356.645686,576.371407 C345.865585,587.26204 328.236046,587.264356 317.453595,576.376948 L0.055891177,255.901621 C-10.6852166,245.057819 -10.6852166,227.390357 0.055408673,216.545183 L45.9879079,170.165577 C56.7705942,159.277933 74.3986294,159.278511 85.1821085,170.16509 Z" id="Fill-9-Copy" stroke="#FFFFFF" stroke-width="16" fill="#000000"></path>
                    <g id="Group-2-Copy-9" transform="translate(33.000000, 0.000000)">
                        <path d="M1036.19468,699.236854 L1036.17842,699.236854 L993.859888,696.616095 L899.013044,686.588843 C876.691358,682.470508 860.515045,662.969456 860.515045,640.229081 L860.515045,344.880933 C860.515045,183.940283 729.738902,53 569.016258,53 C408.261098,53 277.484955,183.940283 277.484955,344.880933 L277.484955,640.229081 C277.484955,662.969456 261.308642,682.470508 239.507199,686.507453 L144.416491,696.583539 L102.244274,699.236854 C75.0940798,699.236854 53,721.342387 53,748.526658 C53,775.710928 75.0778222,797.832739 101.756546,797.832739 L101.772803,797.832739 L272.542645,808.771559 C288.182457,808.771559 303.009389,802.764975 314.373452,791.809877 L359.715902,746.410517 L404.52185,702.752904 C408.602508,699.139186 413.853713,697.397439 419.381297,697.755556 C429.330949,698.488066 437.134598,706.236397 437.979993,716.165981 C438.386433,720.886603 437.199628,725.411888 434.387063,729.758116 L355.879108,827.084316 L327.948549,858.826429 C318.632944,868.137449 313.511799,880.508733 313.511799,893.661363 C313.511799,906.846548 318.632944,919.234111 327.948549,928.528852 C337.573049,938.197988 350.253978,943 362.853619,943 C375.388229,943 387.841551,938.2631 397.238445,928.838134 L555.538706,789.075171 C562.838369,782.157019 575.015312,782.010517 582.640127,789.205396 L708.571505,900.791129 L740.452661,928.528852 C759.63663,947.769456 790.883739,947.785734 810.067708,928.528852 C819.367056,919.234111 824.504458,906.846548 824.504458,893.661363 C824.504458,880.508733 819.367056,868.137449 810.344088,859.103155 L782.299726,827.29593 L704.263241,730.702241 L703.450361,729.302332 C700.816629,725.428166 699.629825,720.886603 700.020007,716.149703 C700.865402,706.236397 708.669051,698.488066 718.63496,697.755556 C724.162545,697.446273 729.397492,699.139186 733.250543,702.541289 L778.235326,746.361683 L823.724093,791.891267 C834.990611,802.748697 849.785028,808.755281 865.83128,808.755281 L865.863795,808.755281 L993.632282,800.779058 L1035.99959,797.832739 C1063.03598,797.702515 1085,775.629538 1085,748.526658 C1085,721.358665 1062.93844,699.236854 1036.19468,699.236854" id="Fill-1" fill="#1D4371"></path>
                        <g id="Group-5" fill="#FFFFFF" stroke="#1D4371" stroke-width="23">
                            <path d="M569.829617,0.320524766 C380.055946,0.320524766 225.688903,154.749142 225.688903,344.562225 L225.688903,634.978521 L140.475431,644.011814 L100.724331,646.485796 C45.5479171,647.527473 0.996745714,692.742766 0.996745714,748.163239 C0.996745714,803.599987 45.35266,848.782727 100.25246,849.824405 L267.11596,860.51787 C263.58506,870.918364 261.730117,881.969906 261.730117,893.281867 C261.730117,920.446851 272.306546,946.00049 291.523103,965.190134 C310.723389,984.41233 336.285803,994.991862 363.491631,994.991862 C389.932703,994.991862 414.746631,985.014549 433.588946,966.850306 L569.780803,846.699373 L674.780331,939.652771 L705.891303,966.703821 C724.896331,984.949444 749.807889,994.959309 776.265231,994.959309 C803.438517,994.959309 828.98466,984.379777 848.152403,965.157581 C867.336417,946.00049 877.912846,920.446851 877.912846,893.281867 C877.912846,881.95363 876.074174,870.918364 872.559546,860.534146 L998.061074,852.705292 L1039.45559,849.824405 C1094.32285,848.489756 1138.64622,803.307015 1138.64622,748.163239 C1138.64622,692.742766 1094.25776,647.527473 1039.30915,646.502073 L999.411603,644.02809 L913.95406,634.994797 L913.95406,344.562225 C913.95406,154.749142 759.587017,0.320524766 569.829617,0.320524766 M569.829617,52.7136232 C730.705231,52.7136232 861.592603,183.639403 861.592603,344.562225 L861.592603,639.877658 C861.592603,662.615514 877.782674,682.114406 900.107074,686.232285 L995.05086,696.258426 L1037.38912,698.878895 L1037.40539,698.878895 C1064.17189,698.878895 1086.25222,720.998255 1086.25222,748.163239 C1086.25222,775.263117 1064.28579,797.333649 1037.2264,797.463858 L994.806789,800.409851 L866.945903,808.368915 L866.897089,808.368915 C850.85346,808.368915 836.030189,802.379272 824.754089,791.523044 L779.226631,745.982227 L734.21986,702.182964 C730.672689,699.057933 725.953974,697.365208 720.909831,697.365208 C720.470503,697.365208 720.014903,697.365208 719.575574,697.39776 C709.61746,698.13019 701.790903,705.877662 700.96106,715.78987 C700.554274,720.526245 701.742089,725.067306 704.394331,728.941042 L705.191631,730.340796 L783.294489,826.923786 L811.378974,858.727488 C820.393346,867.760781 825.535117,880.130695 825.535117,893.281867 C825.535117,906.465592 820.393346,918.851783 811.086089,928.145495 C801.485946,937.781007 788.875589,942.582487 776.265231,942.582487 C763.638603,942.582487 751.011974,937.764731 741.411831,928.145495 L709.50356,900.410844 L583.465074,788.837471 C579.65756,785.256706 574.711046,783.466324 569.780803,783.466324 C564.866831,783.466324 560.001674,785.256706 556.340603,788.707261 L397.921974,928.454743 C388.500817,937.878664 376.036903,942.61504 363.491631,942.61504 C350.881274,942.61504 338.205831,937.81356 328.556874,928.145495 C319.249617,918.851783 314.107846,906.465592 314.107846,893.281867 C314.107846,880.130695 319.249617,867.760781 328.556874,858.450792 L356.52746,826.69592 L435.102189,729.396776 C437.917146,725.05103 439.088689,720.526245 438.681903,715.806146 C437.85206,705.877662 430.025503,698.13019 420.067389,697.39776 C419.595517,697.365208 419.107374,697.348932 418.635503,697.348932 C413.623903,697.348932 408.937731,699.106762 405.195303,702.394555 L360.351246,746.047332 L314.970231,791.441663 C303.612774,802.395548 288.773231,808.385191 273.120117,808.385191 L102.205031,797.463858 L102.18876,797.463858 C75.4710743,797.463858 53.3907457,775.344498 53.3907457,748.163239 C53.3907457,720.981979 75.4873457,698.878895 102.660631,698.878895 L144.884989,696.225874 L240.040303,686.150904 C261.860289,682.114406 278.05036,662.615514 278.05036,639.877658 L278.05036,344.562225 C278.05036,183.639403 408.937731,52.7136232 569.829617,52.7136232" id="Fill-3"></path>
                        </g>
                    </g>
                    <g id="Group-4-Copy" transform="translate(269.000000, 85.000000)">
                        <g id="Page-1-Copy-4" fill="#4A90E2">
                            <path d="M596.37577,55.262831 C596.250418,55.0745684 596.12516,54.8864782 596,54.6985609 C600.735834,49.6033756 606.998676,44.4767385 613.397539,38.7960666 C635.728438,18.97057 654.331691,7.16043368 692.597037,1.3043577 C727.703954,-4.06905471 743.281435,8.47656891 749.782806,15.0342611 C756.009215,21.3161455 744.107523,23.7294633 740.190541,25.4121326 C733.827857,28.1460164 727.986151,31.9952281 722.845112,36.6355725 C712.618508,45.864245 705.206632,58.0989801 700.005295,70.616781 C697.611449,76.3760823 688.807887,97.4741656 701.505518,97.5902952 C719.886873,97.7560218 738.748204,100.733052 756.574814,108.432685 C777.523674,117.482324 792.120704,127.093257 806.182284,141.332437 C815.082323,150.345786 826.305056,165.778923 829.691412,177.324139 C830.400521,179.739876 829.851806,182.537873 828.411881,184.196348 C826.422035,186.486278 823.110448,186.05926 820.236628,185.401193 C818.929359,185.102401 817.625708,184.778206 816.325676,184.437075 C810.605772,182.937068 804.988376,180.880607 799.217822,179.558423 C773.904566,173.757993 749.008575,168.731759 718.551868,170.895882 C689.952851,172.927162 672.196585,179.652108 660.325823,186.88541 C666.229125,214.211447 668.557598,242.739051 667.123977,272.064648 L667.821486,379.983285 L599.609936,370.254603 L332.910743,344.560323 L66.2115505,370.254603 L0,379.983285 L0.697509018,272.064648 C-3.30249098,190.242168 21.9849256,114.631962 72.4922414,54 L145.616698,66.4936045 L332.910743,97.2299187 L520.204788,66.4936045 L595.329245,54 C595.679298,54.4202252 596.028141,54.8411698 596.37577,55.262831 Z" id="Combined-Shape"></path>
                        </g>
                        <g id="Page-1-Copy-5" transform="translate(182.000000, 174.000000)">
                            <g id="Group-3" transform="translate(194.680377, 0.121059)">
                                <mask id="mask-2" fill="white">
                                    <use xlink:href="#path-1"></use>
                                </mask>
                                <g id="Clip-2"></g>
                                <path d="M104.082271,34.7734949 L29.8244544,83.0139152 C21.4531982,88.4522973 10.2613941,86.0705411 4.8265669,77.6938093 L3.8415769,76.177092 C-1.5932503,67.8003602 0.788107884,56.6000761 9.1593641,51.1616941 L83.4171811,2.92127379 C91.7884373,-2.51710829 102.980241,-0.135352043 108.415069,8.24253932 L109.3989,9.75925654 C114.833727,18.1359883 112.453528,29.3351129 104.082271,34.7734949" id="Fill-1" fill="#FFFFFF" mask="url(#mask-2)"></path>
                            </g>
                            <g id="Group-6" transform="translate(0.000000, 0.121059)">
                                <mask id="mask-4" fill="white">
                                    <use xlink:href="#path-3"></use>
                                </mask>
                                <g id="Clip-5"></g>
                                <path d="M8.2334735,34.7734949 L82.4912905,83.0139152 C90.8625467,88.4522973 102.054351,86.0705411 107.489178,77.6938093 L108.473009,76.177092 C113.907836,67.8003602 111.527637,56.6000761 103.156381,51.1616941 L28.8985638,2.92127379 C20.5273076,-2.51710829 9.33550349,-0.135352043 3.9006763,8.24253932 L2.91568629,9.75925654 C-2.5191409,18.1359883 -0.137782719,29.3351129 8.2334735,34.7734949" id="Fill-4" fill="#FFFFFF" mask="url(#mask-4)"></path>
                            </g>
                        </g>
                    </g>
                </g>
            </g>
        </g>
    </g>
</svg>